<?xml version="1.0" encoding="utf-8"?>
<!-- Generator: Adobe Illustrator 18.0.0, SVG Export Plug-In . SVG Version: 6.00 Build 0)  -->
<!DOCTYPE svg PUBLIC "-//W3C//DTD SVG 1.1//EN" "http://www.w3.org/Graphics/SVG/1.1/DTD/svg11.dtd">
<svg version="1.1" id="Layer_1" xmlns="http://www.w3.org/2000/svg" xmlns:xlink="http://www.w3.org/1999/xlink" x="0px" y="0px"
	 viewBox="0 163 300 292" enable-background="new 0 163 300 292" xml:space="preserve">
<path fill="#FF6C6C" d="M259.1,397.2l-109,46.9V311.7l109-46.9V397.2z"/>
<path fill="#6EBA7B" d="M150.1,217.9l109,46.9l-109,46.9l-109-46.9L150.1,217.9z"/>
<path fill="#A9DEF8" d="M41.2,397.2V264.8l109,46.9v132.4L41.2,397.2z"/>
<path d="M206.3,367.9c-3.2,0-5.9,2.6-5.9,5.9s2.6,5.9,5.9,5.9c3.2,0,5.9-2.6,5.9-5.9S209.5,367.9,206.3,367.9z"/>
<path d="M155.9,264.8c0-3.2-2.6-5.9-5.9-5.9s-5.9,2.6-5.9,5.9c0,3.2,2.6,5.9,5.9,5.9S155.9,268,155.9,264.8z"/>
<path d="M93.8,379.7c3.2,0,5.9-2.6,5.9-5.9s-2.6-5.9-5.9-5.9c-3.2,0-5.9,2.6-5.9,5.9S90.5,379.7,93.8,379.7z"/>
<path d="M296.5,407.5l-31.7-14.1V264.8c0-2.3-1.4-4.5-3.6-5.4l-105.4-45.3v-43c0-3.2-2.6-5.9-5.9-5.9c-3.2,0-5.9,2.6-5.9,5.9v43
	L38.8,259.4c-2.1,0.9-3.6,3-3.6,5.4v128.6L3.5,407.5c-3,1.3-4.3,4.8-3,7.7c1.3,2.9,4.8,4.3,7.7,3l32.8-14.6l106.6,45.9
	c1.4,0.6,3.1,0.6,4.6,0l106.6-45.9l32.8,14.6c3,1.3,6.4,0,7.7-3C300.8,412.3,299.5,408.8,296.5,407.5z M144.1,226.8v14.5
	c0,3.2,2.6,5.9,5.9,5.9c3.2,0,5.9-2.6,5.9-5.9v-14.5l88.3,38L150,305.3l-94.2-40.5L144.1,226.8z M77.7,380.9c-1.3-3-4.8-4.3-7.7-3
	l-23.1,10.3V273.7l97.3,41.8v119.7l-88.5-38.1l19.1-8.5C77.7,387.4,79,383.9,77.7,380.9z M155.9,435.2V315.5l97.3-41.8v114.5
	L230,378c-3-1.3-6.4,0-7.7,3c-1.3,3,0,6.4,3,7.7l19.1,8.5L155.9,435.2z"/>
</svg>
